# xmcd
#
# Track frame offsets: 
#        150
#        12890
#        27468
#        38197
#        47847
#        59416
#        69954
#        80758
#        93367
#        106983
#        116573
#        128926
#
# Disc length: 1903 seconds
#
# Revision: 1
# Processed by: cddbd v1.5.2PL0 Copyright (c) Steve Scherf et al.
# Submitted via: ExactAudioCopy v1.0b3
#
DISCID=9f076d0c
DTITLE=Various Artist - The Best of Sun Country
DYEAR=2001
DGENRE=Country
TTITLE0=Johnny Cash - Folsom Prison
TTITLE1=Jeannie C. Riley - Harper Valley PTA
TTITLE2=Charlie Rich - Who Will The Next Fool Be
TTITLE3=Dave Dudley - Six Days On The Road
TTITLE4=Jerry Lee Lewis - Drinking Wine Spo-Dee-O-Dee
TTITLE5=Webb Pierce - In The Jailhouse Now
TTITLE6=Hank Locklin - Please Help Me, I'm Fallin'
TTITLE7=Leroy Van Dyke - The Auctioneer
TTITLE8=Patti Page - Tennessee Waltz
TTITLE9=Roy Orbison - Your Gonna Cry
TTITLE10=Johnny Cash - I Walk The Line
TTITLE11=Jimmie Davis - You Are My Sunshine
EXTD=
EXTT0=
EXTT1=
EXTT2=
EXTT3=
EXTT4=
EXTT5=
EXTT6=
EXTT7=
EXTT8=
EXTT9=
EXTT10=
EXTT11=
PLAYORDER=
